<svg aria-hidden="true" style="position: absolute; width: 0; height: 0; overflow: hidden;" version="1.1" xmlns="http://www.w3.org/2000/svg" xmlns:xlink="http://www.w3.org/1999/xlink">
<defs>
<symbol id="icon-sphere" viewBox="-2 0 32 32">
<path d="M15 2c-8.284 0-15 6.716-15 15s6.716 15 15 15c8.284 0 15-6.716 15-15s-6.716-15-15-15zM23.487 22c0.268-1.264 0.437-2.606 0.492-4h3.983c-0.104 1.381-0.426 2.722-0.959 4h-3.516zM6.513 12c-0.268 1.264-0.437 2.606-0.492 4h-3.983c0.104-1.381 0.426-2.722 0.959-4h3.516zM21.439 12c0.3 1.28 0.481 2.62 0.54 4h-5.979v-4h5.439zM16 10v-5.854c0.456 0.133 0.908 0.355 1.351 0.668 0.831 0.586 1.625 1.488 2.298 2.609 0.465 0.775 0.867 1.638 1.203 2.578h-4.852zM10.351 7.422c0.673-1.121 1.467-2.023 2.298-2.609 0.443-0.313 0.895-0.535 1.351-0.668v5.854h-4.852c0.336-0.94 0.738-1.803 1.203-2.578zM14 12v4h-5.979c0.059-1.38 0.24-2.72 0.54-4h5.439zM2.997 22c-0.533-1.278-0.854-2.619-0.959-4h3.983c0.055 1.394 0.224 2.736 0.492 4h-3.516zM8.021 18h5.979v4h-5.439c-0.3-1.28-0.481-2.62-0.54-4zM14 24v5.854c-0.456-0.133-0.908-0.355-1.351-0.668-0.831-0.586-1.625-1.488-2.298-2.609-0.465-0.775-0.867-1.638-1.203-2.578h4.852zM19.649 26.578c-0.673 1.121-1.467 2.023-2.298 2.609-0.443 0.312-0.895 0.535-1.351 0.668v-5.854h4.852c-0.336 0.94-0.738 1.802-1.203 2.578zM16 22v-4h5.979c-0.059 1.38-0.24 2.72-0.54 4h-5.439zM23.98 16c-0.055-1.394-0.224-2.736-0.492-4h3.516c0.533 1.278 0.855 2.619 0.959 4h-3.983zM25.958 10h-2.997c-0.582-1.836-1.387-3.447-2.354-4.732 1.329 0.636 2.533 1.488 3.585 2.54 0.671 0.671 1.261 1.404 1.766 2.192zM5.808 7.808c1.052-1.052 2.256-1.904 3.585-2.54-0.967 1.285-1.771 2.896-2.354 4.732h-2.997c0.504-0.788 1.094-1.521 1.766-2.192zM4.042 24h2.997c0.583 1.836 1.387 3.447 2.354 4.732-1.329-0.636-2.533-1.488-3.585-2.54-0.671-0.671-1.261-1.404-1.766-2.192zM24.192 26.192c-1.052 1.052-2.256 1.904-3.585 2.54 0.967-1.285 1.771-2.896 2.354-4.732h2.997c-0.504 0.788-1.094 1.521-1.766 2.192z"></path>
</symbol>
<symbol id="icon-earth" viewBox="0 0 32 32">
<path d="M16 0c-8.837 0-16 7.163-16 16s7.163 16 16 16 16-7.163 16-16-7.163-16-16-16zM16 30c-1.967 0-3.84-0.407-5.538-1.139l7.286-8.197c0.163-0.183 0.253-0.419 0.253-0.664v-3c0-0.552-0.448-1-1-1-3.531 0-7.256-3.671-7.293-3.707-0.188-0.188-0.442-0.293-0.707-0.293h-4c-0.552 0-1 0.448-1 1v6c0 0.379 0.214 0.725 0.553 0.894l3.447 1.724v5.871c-3.627-2.53-6-6.732-6-11.489 0-2.147 0.484-4.181 1.348-6h3.652c0.265 0 0.52-0.105 0.707-0.293l4-4c0.188-0.188 0.293-0.442 0.293-0.707v-2.419c1.268-0.377 2.61-0.581 4-0.581 2.2 0 4.281 0.508 6.134 1.412-0.13 0.109-0.256 0.224-0.376 0.345-1.133 1.133-1.757 2.64-1.757 4.243s0.624 3.109 1.757 4.243c1.139 1.139 2.663 1.758 4.239 1.758 0.099 0 0.198-0.002 0.297-0.007 0.432 1.619 1.211 5.833-0.263 11.635-0.014 0.055-0.022 0.109-0.026 0.163-2.541 2.596-6.084 4.208-10.004 4.208z"></path>
</symbol>
<symbol id="icon-github" viewBox="0 0 32 32">
<path d="M16 0.395c-8.836 0-16 7.163-16 16 0 7.069 4.585 13.067 10.942 15.182 0.8 0.148 1.094-0.347 1.094-0.77 0-0.381-0.015-1.642-0.022-2.979-4.452 0.968-5.391-1.888-5.391-1.888-0.728-1.849-1.776-2.341-1.776-2.341-1.452-0.993 0.11-0.973 0.11-0.973 1.606 0.113 2.452 1.649 2.452 1.649 1.427 2.446 3.743 1.739 4.656 1.33 0.143-1.034 0.558-1.74 1.016-2.14-3.554-0.404-7.29-1.777-7.29-7.907 0-1.747 0.625-3.174 1.649-4.295-0.166-0.403-0.714-2.030 0.155-4.234 0 0 1.344-0.43 4.401 1.64 1.276-0.355 2.645-0.532 4.005-0.539 1.359 0.006 2.729 0.184 4.008 0.539 3.054-2.070 4.395-1.64 4.395-1.64 0.871 2.204 0.323 3.831 0.157 4.234 1.026 1.12 1.647 2.548 1.647 4.295 0 6.145-3.743 7.498-7.306 7.895 0.574 0.497 1.085 1.47 1.085 2.963 0 2.141-0.019 3.864-0.019 4.391 0 0.426 0.288 0.925 1.099 0.768 6.354-2.118 10.933-8.113 10.933-15.18 0-8.837-7.164-16-16-16z"></path>
</symbol>
<symbol id="icon-html5" viewBox="0 0 22 28">
<path d="M17.656 9.328l0.25-2.734h-13.813l0.734 8.344h9.562l-0.344 3.563-3.078 0.828-3.063-0.828-0.203-2.188h-2.734l0.344 4.344 5.656 1.563h0.063v-0.016l5.609-1.547 0.781-8.5h-10.063l-0.234-2.828h10.531zM0 2h22l-2 22.469-9.031 2.531-8.969-2.531z"></path>
</symbol>
<symbol id="icon-html5-original" viewBox="25 80 461 461">
  <polygon id="polygon3028" points="437.367,100.62 404.321,470.819 255.778,512 107.644,470.877 74.633,100.62 " style="fill:#e44d26"/>
  <polygon id="polygon3030" points="256,480.523 376.03,447.246 404.27,130.894 256,130.894 " style="fill:#f16529"/>
  <polygon id="polygon3032" points="191.76,221.716 256,221.716 256,176.305 255.843,176.305 142.132,176.305 143.219,188.488 154.38,313.627 256,313.627 256,268.217 195.91,268.217 " style="fill:#ebebeb"/>
  <polygon id="polygon3034" points="201.994,336.333 177.419,336.333 156.409,336.333 162.771,407.634 255.791,433.457 256,433.399 256,386.153 255.801,386.206 205.227,372.55 " style="fill:#ebebeb"/>
  <polygon id="polygon3044" points="255.843,313.627 311.761,313.627 306.49,372.521 255.843,386.191 255.843,433.435 348.937,407.634 349.62,399.962 360.291,280.411 361.399,268.217 349.162,268.217 255.843,268.217 " style="fill:#ffffff"/>
  <polygon id="polygon3046" points="255.843,221.605 255.843,221.716 365.385,221.716 365.385,221.716 365.531,221.716 366.442,211.509 368.511,188.488 369.597,176.305 255.843,176.305 255.843,204.509 " style="fill:#ffffff"/>
</symbol>
<symbol id="icon-css3" viewBox="0 -40 574 574">
<path d="M32,0l40.8,460.8L256,512l183.136-51.168L480,0H32z M392.768,150.688l-5.152,57.888l-15.52,173.568L256,414.208l-0.064,0.032l-116-32.128l-8.128-90.752h56.832l4.224,47.104l63.072,17.024l0.064-0.064l63.136-17.024l8.608-78.432l-198.656,0.544l-5.632-53.664l209.056-2.432l4.224-57.44l-218.88,0.608l-3.68-53.376H256h141.824L392.768,150.688z"/>
</symbol>
<symbol id="icon-css3-original" viewBox="25 80 461 461">
  <polygon id="polygon2989" points="255.778,512 107.644,470.877 74.633,100.62 437.367,100.62 404.321,470.819 " style="fill:#264de4"/>
  <polygon id="polygon2991" points="376.03,447.246 404.27,130.894 256,130.894 256,480.523 " style="fill:#2965f1"/>
  <polygon id="polygon2993" points="150.31,268.217 154.38,313.627 256,313.627 256,268.217 " style="fill:#ebebeb"/>
  <polygon id="polygon2995" points="142.132,176.305 146.26,221.716 256,221.716 256,176.305 255.843,176.305 " style="fill:#ebebeb"/>
  <polygon id="polygon2997" points="256,386.153 255.801,386.206 205.227,372.55 201.994,336.333 177.419,336.333 156.409,336.333 162.771,407.634 255.791,433.457 256,433.399 " style="fill:#ebebeb"/>
  <polygon id="polygon3005" points="361.399,268.217 369.597,176.305 255.843,176.305 255.843,221.716 319.831,221.716 315.699,268.217 255.843,268.217 255.843,313.627 311.761,313.627 306.49,372.521 255.843,386.191 255.843,433.435 348.937,407.634 349.62,399.962 360.291,280.411 " style="fill:#ffffff"/>
</symbol>
<symbol id="icon-react" viewBox="0 0 32 32">
<path fill="#61dafb" style="fill: #61dafb" d="M16 13.148c-1.575 0-2.852 1.277-2.852 2.852s1.277 2.852 2.852 2.852v0c1.575 0 2.852-1.277 2.852-2.852s-1.277-2.852-2.852-2.852v0zM8.011 21.673l-0.629-0.16c-4.691-1.185-7.381-3.197-7.381-5.519s2.691-4.333 7.381-5.519l0.629-0.159 0.177 0.624c0.545 1.86 1.163 3.443 1.899 4.957l-0.082-0.186 0.135 0.284-0.135 0.284c-0.656 1.329-1.275 2.912-1.761 4.551l-0.056 0.22zM7.089 11.933c-3.565 1.001-5.753 2.533-5.753 4.061 0 1.527 2.188 3.059 5.753 4.061 0.512-1.62 1.046-2.965 1.662-4.263l-0.086 0.202c-0.531-1.098-1.066-2.443-1.511-3.828l-0.065-0.234zM23.989 21.673l-0.177-0.625c-0.544-1.859-1.162-3.441-1.9-4.954l0.081 0.184-0.135-0.284 0.135-0.284c0.656-1.329 1.275-2.911 1.762-4.55l0.056-0.221 0.177-0.624 0.631 0.159c4.689 1.185 7.38 3.197 7.38 5.52s-2.691 4.333-7.38 5.519zM23.335 15.995c0.64 1.385 1.169 2.747 1.576 4.061 3.567-1.003 5.753-2.535 5.753-4.061 0-1.528-2.188-3.059-5.753-4.061-0.511 1.619-1.045 2.963-1.662 4.262l0.086-0.2zM7.080 11.927l-0.177-0.623c-1.319-4.648-0.919-7.979 1.097-9.141 1.977-1.141 5.152 0.207 8.479 3.621l0.453 0.465-0.453 0.465c-1.146 1.19-2.207 2.482-3.162 3.853l-0.068 0.103-0.18 0.257-0.313 0.027c-1.875 0.151-3.596 0.439-5.264 0.86l0.218-0.047zM9.608 3.087c-0.357 0-0.673 0.077-0.94 0.231-1.325 0.764-1.56 3.42-0.647 7.004 1.21-0.285 2.681-0.521 4.18-0.658l0.131-0.010c0.894-1.264 1.792-2.37 2.756-3.414l-0.020 0.022c-2.080-2.025-4.049-3.175-5.46-3.175zM22.393 30.236c-0.001 0-0.001 0 0 0-1.9 0-4.34-1.431-6.872-4.031l-0.453-0.465 0.453-0.465c1.146-1.19 2.206-2.482 3.16-3.854l0.068-0.103 0.18-0.257 0.312-0.027c1.875-0.15 3.597-0.438 5.267-0.858l-0.218 0.046 0.629-0.159 0.179 0.624c1.316 4.645 0.917 7.977-1.099 9.139-0.449 0.259-0.988 0.411-1.562 0.411-0.016 0-0.031-0-0.047-0l0.002 0zM16.932 25.728c2.080 2.025 4.049 3.175 5.46 3.175h0.001c0.356 0 0.673-0.077 0.939-0.231 1.325-0.764 1.561-3.421 0.647-7.005-1.212 0.286-2.682 0.522-4.182 0.658l-0.13 0.010c-0.893 1.265-1.791 2.371-2.755 3.416l0.020-0.022zM24.92 11.927l-0.629-0.159c-1.453-0.376-3.175-0.664-4.939-0.806l-0.111-0.007-0.312-0.027-0.18-0.257c-1.021-1.474-2.082-2.766-3.237-3.966l0.009 0.010-0.453-0.465 0.453-0.465c3.325-3.413 6.499-4.761 8.479-3.621 2.016 1.163 2.416 4.493 1.099 9.14zM19.667 9.653c1.523 0.139 2.969 0.364 4.312 0.668 0.915-3.584 0.679-6.24-0.647-7.004-1.317-0.761-3.793 0.405-6.4 2.944 0.943 1.022 1.841 2.128 2.666 3.289l0.069 0.103zM9.608 30.236c-0.014 0-0.030 0-0.046 0-0.574 0-1.113-0.152-1.577-0.419l0.015 0.008c-2.016-1.161-2.416-4.492-1.097-9.139l0.176-0.624 0.629 0.159c1.54 0.388 3.239 0.661 5.047 0.812l0.313 0.027 0.179 0.257c1.022 1.475 2.083 2.767 3.239 3.967l-0.010-0.010 0.453 0.465-0.453 0.465c-2.531 2.6-4.971 4.031-6.868 4.031zM8.021 21.667c-0.915 3.584-0.679 6.241 0.647 7.005 1.316 0.751 3.791-0.407 6.4-2.944-0.943-1.022-1.841-2.129-2.667-3.29l-0.069-0.103c-1.629-0.146-3.099-0.382-4.534-0.711l0.224 0.043zM16 22.504c-1.097 0-2.225-0.048-3.355-0.141l-0.313-0.027-0.18-0.257c-0.544-0.768-1.139-1.691-1.697-2.639l-0.103-0.19c-0.452-0.758-0.971-1.732-1.45-2.728l-0.105-0.243-0.133-0.284 0.133-0.284c0.584-1.239 1.102-2.212 1.658-3.161l-0.103 0.191c0.552-0.955 1.159-1.907 1.8-2.829l0.18-0.257 0.313-0.027c1.005-0.090 2.174-0.142 3.355-0.142s2.35 0.052 3.505 0.153l-0.15-0.011 0.312 0.027 0.179 0.257c1.177 1.666 2.294 3.567 3.252 5.56l0.104 0.24 0.135 0.284-0.135 0.284c-1.058 2.232-2.176 4.133-3.439 5.925l0.083-0.125-0.179 0.257-0.312 0.027c-1.129 0.093-2.259 0.141-3.356 0.141zM13.071 21.059c1.973 0.148 3.885 0.148 5.86 0 1.004-1.445 1.978-3.104 2.827-4.836l0.101-0.228c-0.947-1.958-1.922-3.617-3.012-5.19l0.083 0.126c-0.877-0.071-1.898-0.111-2.929-0.111s-2.052 0.040-3.063 0.119l0.134-0.008c-1.008 1.447-1.983 3.106-2.83 4.84l-0.099 0.224c0.951 1.96 1.926 3.619 3.014 5.193l-0.085-0.13z"></path>
</symbol>
<symbol id="icon-gulp" viewBox="0 0 256 566" preserveAspectRatio="xMidYMid">
<path d="M197.28 548.749l5.427-90.43 14.985-25.58s-34.106 13.952-91.205 13.952c-57.1 0-90.689-13.694-90.689-13.694l16.794 27.904 5.941 87.848c0 9.418 31.059 17.052 69.374 17.052 38.313 0 69.373-7.634 69.373-17.052M180.161 126.454l11.391-45.025 63.081-66.376L238.007.892l-66.784 70.707-13.226 53.793a886.14 886.14 0 0 0-29.873-.497c-70.336 0-127.355 8.016-127.355 17.902 0 9.887 57.019 17.902 127.355 17.902 70.335 0 127.353-8.015 127.353-17.902 0-7.28-30.924-13.546-75.316-16.343" fill="#D34A47"/><path d="M173.535 151.669s-2.467.553-9.724.584c-7.259.03-12.413-.047-14.466-1.917-.552-.502-.854-1.499-.851-2.174.006-1.285.918-2.042 2.08-2.516l1.099 1.724c-.478.165-.751.36-.752.568-.004.976 7.422 1.644 13.102 1.572 5.681-.07 12.545-.538 12.551-1.5 0-.291-.519-.565-1.422-.781l1.094-1.712c1.472.457 2.757 1.34 2.754 2.868-.014 2.598-3.32 2.993-5.465 3.284" fill="#FFF"/><path d="M254.509 15.184c1.586-1.832-.821-6.518-5.376-10.465C244.576.774 239.596-.94 238.007.892c-1.587 1.832.821 6.518 5.378 10.463 4.555 3.946 9.537 5.662 11.124 3.829M194.246 327.865c-1.495-14.384 31.462-35.216 23.004-35.883-18.208 1.041-27.27 21.338-36.431 42.596-3.357 7.791-14.844 41.013-22.378 36.923-7.532-4.088 9.765-31.407 14.613-47.631-5.594 4.102-26.109 20.041-31.396 5.114-8.5 7.219-26.663 11.13-24.614-7.833-4.522 8.01-14.671 19.193-26.853 14.546-15.998-6.101 9.27-57.062 15.553-54.491 6.284 2.57-1.268 14.179-3.246 18.687-4.35 9.921-9.375 22.393-6.018 24.946 5.751 4.374 21.401-16.547 21.749-17.007 2.927-3.867 11.266-29.166 17.987-26.261 6.721 2.905-16.764 36.308-7.983 42.937 1.771 1.338 9.017-.825 13.425-5.594 2.852-3.085 1.871-9.918 11.378-32.59 9.507-22.671 17.98-50.905 24.5-48.754 6.52 2.15 1.146 16.641-1.193 22.043-10.976 25.354-29.956 67.241-21.005 64.07 8.951-3.17 13.612-3.356 22.377-13.613 8.765-10.257 8.361-27.152 14.203-26.793 5.844.36 4.863 5.777 3.446 9.902 5.75-6.58 27.256-20.438 32.448-6.713 6.15 16.249-30.769 39.72-21.564 38.523 8.975-1.167 23.515-10.376 29.723-18.749l17.088-153.626s-17.195 14.23-126.589 14.23c-109.395 0-124.811-13.934-124.811-13.934l14.548 140.224c7.722-21.947 26.059-66.339 54.963-64.849 13.148.678 30.7 25.995 15.665 26.853-6.364.362-7.01-12.637-14.546-14.546-5.438-1.378-13.009 3.043-17.902 7.833-9.758 9.55-30.745 47.229-27.972 66.014 3.533 23.949 33.048-8.322 38.042-17.903 3.517-6.749 5.893-26.745 13.585-24.647 7.693 2.098-.671 22.734-6.247 40.979-6.264 20.487-9.557 42.098-17.408 39.612-7.852-2.484 4.938-28.932 4.475-33.566-7.38 6.809-20.976 24.047-38.37 15.515l9.035 87.078s24.013 18.973 96.35 18.973c72.337 0 97.239-18.677 97.239-18.677l11.219-100.857c-9.179 8.938-38.229 24.81-40.089 6.919" fill="#D34A47"/>
</symbol>
<symbol id="icon-browsersync" viewBox="0 0 256 387" preserveAspectRatio="xMidYMid">
<path d="M146.438 115.038V382.03c0 2.837 2.836 4.61 5.318 3.191l102.471-55.667c1.064-.71 1.773-1.773 1.773-3.191V174.96c0-1.418-.71-2.482-1.773-3.191l-102.116-59.923c-2.482-1.418-5.673.355-5.673 3.191zM131.9 383.094V3.704c0-2.483-2.482-4.256-4.964-3.546L2.482 46.252C1.064 46.96 0 48.025 0 49.797v288.621c0 1.418 1.064 2.837 2.482 3.546l124.454 44.676c2.482.709 4.964-1.064 4.964-3.546z" fill="#F14646"/>
</symbol>
<symbol id="icon-bem" viewBox="0 0 256 212" preserveAspectRatio="xMidYMid">
<path d="M0 32.692h59.85v17.603H0V32.692zM0 0h59.85v17.603H0V0zm107.38 65.132H0v17.603h103.356c11.316 0 37.72.251 47.528 16.094v-9.807c-4.778-15.592-18.86-23.89-43.505-23.89zm.25 32.691H0v17.603h103.356c25.147 0 40.99 1.006 47.528 4.527v-7.796c-5.03-12.322-26.153-14.334-43.253-14.334zm-.25 82.986H0v-17.603h103.356c11.316 0 37.72-.251 47.528-16.094v9.807c-4.778 15.592-18.86 23.89-43.505 23.89zm.25-32.691H0v-17.603h103.356c25.147 0 40.99-1.006 47.528-4.527v7.796c-5.03 12.322-26.153 14.334-43.253 14.334zm69.407 63.12H256v-10.814h-76.7c-6.79 0-22.883-.251-28.667-9.556v6.036c2.766 9.304 11.316 14.334 26.404 14.334zm-.251-19.867h78.963v-10.813H179.3c-15.34 0-24.896-.503-28.668-2.766v4.778c3.017 7.544 15.842 8.801 26.153 8.801z" fill="#010101"/>
</symbol>
<symbol id="icon-postcss" viewBox="0 0 256 256">
<g fill="#DD3735"><path d="M255.902 121.097c-.086-3.284-.26-6.654-.432-9.938-.173-3.37-.26-6.74-.605-10.11-.605-4.582-1.21-9.248-2.247-13.742-.778-3.716-2.074-7.259-3.37-10.802-1.642-4.149-3.284-8.383-5.358-12.358-3.371-6.395-7.778-12.099-11.84-18.062-2.68-3.803-6.135-6.914-8.728-10.802-1.47-2.247-3.63-4.149-5.79-5.877-3.457-2.765-7.087-5.272-10.716-7.69-2.766-1.903-5.531-3.717-8.47-5.359-2.333-1.297-4.84-2.334-7.26-3.457-2.764-1.297-5.443-2.852-8.554-3.457-.778-.173-1.47-.432-2.247-.69-1.988-.693-3.89-1.47-5.877-2.075-3.024-.95-5.962-2.075-9.074-2.852-3.024-.778-6.135-1.297-9.246-1.729-3.457-.518-7-.69-10.457-1.037-2.247-.259-4.494-.518-6.655-.605-3.283-.172-6.654-.172-9.938-.259-1.642-.086-3.37-.259-5.012-.173-2.506.087-5.012.346-7.52.692-2.418.26-4.838.691-7.172 1.037-2.851.345-5.703.518-8.555.864-2.68.346-5.444.864-8.123 1.296-.951.173-1.902.52-2.852.691-2.074.433-4.235.606-6.31 1.297-3.715 1.123-7.431 2.42-11.061 3.802-3.37 1.383-6.654 2.852-9.851 4.581-3.284 1.814-6.395 3.975-9.507 6.05-2.938 1.986-5.876 4.061-8.728 6.308-2.765 2.16-5.358 4.58-7.864 7-1.383 1.382-2.506 3.024-3.803 4.58-2.16 2.506-4.321 4.926-6.395 7.518C24.557 47.9 23 50.147 21.36 52.394c-2.94 3.975-5.445 8.21-7.778 12.444-.951 1.728-1.815 3.457-2.68 5.185-1.296 2.593-2.678 5.1-3.888 7.778-.864 1.815-1.556 3.802-2.074 5.79a698.06 698.06 0 0 0-3.543 12.79C.36 100.183.1 104.16.014 108.048c-.087 3.456.259 6.827.605 10.284.086.864-.432 1.901.605 2.592.086 0 0 .346-.087.432-.26.52 0 1.037.519 1.21 0 0 .086.087.086.173H1.31c-.26.778.605 1.383.259 2.247-.086.173.26.518.432.778 0 .26-.086.605 0 .864.087.778.433 1.555.433 2.42 0 .605.518 1.296.69 1.901.087.26 0 .691-.172.864-.518.605-.432 1.124.346 1.47.173.086.432.431.432.604 0 .52-.173 1.037-.26 1.556.173.173.26.345.173.518 0 .26-.26.52-.172.692.69 1.382.95 2.938 1.037 4.493 0 .346.173.692.345 1.124.087 0 .346 0 .519.086l-.52 1.556c.433-.26.779-.346 1.21-.519.26 1.124.52 2.161.865 3.111.087.173.26.346.519.52-.087.172-.087.517-.26.604.346 1.555.519 3.025 1.124 4.494.087 0 .173-.087.259-.087-.26-1.555-.432-3.197-.691-4.753v-.518s.173-.087.259-.087c.087.346.26.778.26 1.037.69 0 1.728.432 2.419.432.087-.259.173-.605.26-.777-.52-.519-.951-1.297-1.47-1.815.173.691 0 .95 0 1.21-.345-.173-.777-.346-1.21-.519.346-.432.692-.864 1.21-1.383 0-.777-.432-1.469-1.642-1.382.519-.173 1.038-.432 1.642-.605.087.26.173.518.26.691.69-1.21-.346-2.16-.346-3.37.086-1.469-.778-2.938-1.037-4.494-.432-2.42-.346-6.049-.605-8.469 0-.173-.26-.346-.432-.519-.087.087-.52 1.21-.605 1.297.259 2.074.518 4.148.69 6.222-.085 0-.172 0-.172.086-.345-1.815-.691-3.716-1.123-5.79-.086.605-.173.864-.173 1.21-.26-.086-.345-.173-.778-.346.346.778.692 1.297.95 1.902-.604-.26-1.295-.173-1.295-.173v2.42c-.864-.865-1.124-1.556-1.556-2.16-.173-.692-.26-1.384-.432-2.075l.259-.087c-.086-.345-.26-.605-.26-.864a67.673 67.673 0 0 1-.258-2.074c.086-.086.432-.173.605-.345l-.692-1.037c.692.086 1.124.172 1.556.172 0-.172.086-.259 0-.345-.864-.778-.26-1.47.086-2.16.173-.347.778-.433.95-.779.692-1.296 1.816-2.333 1.816-3.975 0-.778.259-1.642.345-2.42.173-1.469.346-2.938.433-4.407.172-1.9 0-3.803.432-5.617.69-3.025 1.555-6.05 2.506-9.074.69-2.16 1.469-4.235 2.333-6.395 1.297-3.37 2.506-6.74 4.148-9.939 2.334-4.666 5.013-9.16 7.605-13.74 1.642-2.852 3.37-5.53 5.185-8.297 1.729-2.679 3.457-5.444 5.445-7.95 2.765-3.543 5.79-6.827 9.16-9.766 3.457-3.11 6.74-6.308 10.457-9.16 4.84-3.716 9.938-7 15.383-9.852 4.407-2.333 8.987-4.148 13.568-5.877 2.938-1.123 6.135-1.64 9.16-2.592 3.457-1.124 6.914-1.642 10.543-1.729 2.334-.086 4.58-.345 6.914-.604 2.074-.173 4.148-.346 6.395-.605a3.809 3.809 0 0 0-.432.691c-.951 1.383-1.988 2.765-2.938 4.148-.778 1.124-1.642 2.333-2.42 3.457-1.383 1.815-2.852 3.63-4.148 5.531-1.988 2.852-3.803 5.79-5.877 8.642-2.074 2.765-4.321 5.358-6.481 8.037-2.852 3.716-5.531 7.518-8.383 11.234-2.593 3.544-5.358 6.914-7.864 10.457-2.247 3.111-4.235 6.395-6.395 9.593-3.198 4.753-6.395 9.42-9.593 14.172a817.832 817.832 0 0 1-7.605 10.803c-.173.26-.432.346-.691.518-.173.173-.52.346-.52.52-.171.604-.171 1.21-.431 1.727-.691 1.297-1.382 2.593-2.16 3.803-.432.691-1.037 1.296-1.556 1.987-.173-.086-.26-.172-.432-.172.346-.865 1.815-1.383 1.124-2.679-.432.691-.865 1.296-1.297 1.987l-1.037 2.074c.346.26.95.432.346.951-.26.432-.52.95-.778 1.383.087 0 .087.086.173.086.259-.346.519-.605.778-.95.086 0 .173.086.259.086-.26.864-.778 1.642-1.21 2.42-.346.691-1.21 1.21-1.815 1.728.087.086.692.346.778.432.259-.346.346-.173.605-.518.173.26.432-.173.519.086.259-.346.518-.605.605-.864.345-.864.864-1.556 1.728-1.9.346-.174.605-.434.864-.693 2.593-2.679 5.272-5.27 7.605-8.123 3.63-4.408 6.914-8.988 10.37-13.482 1.47-1.9 3.198-3.802 4.753-5.617.173.087.346.087.433.173-.173 1.815-.346 3.716-.433 5.531-.26 3.197-.432 6.395-.691 9.68-.086 1.295 0 2.591-.086 3.888 0 .345-.26.604-.26.95 0 .864.26 1.815.26 2.68-.26 3.197-.605 6.308-.865 9.505-.086.692.26 1.383.433 1.988-.087-.086-.173-.173-.433-.346 0 5.013.95 9.94.173 14.865.346-.087.519-.173.519-.346.086-.605.259-1.21.259-1.815.087-.518 0-1.037 0-1.642v-.864c.087-1.556.432-3.198.259-4.753-.172-1.729-.172-3.37.173-5.013.173-.69-.086-1.555.346-2.419v1.296c-.087 4.926.086 9.852-.605 14.778-.086.432.259 1.21-.691 1.123-.087 0-.173.432-.346.692-.432.864.518 1.987-.346 2.851-.173.173.173.951.259 1.47 0 .172.087.345 0 .432-.345.605-.345.605.173.691.087 1.901.26 3.63.346 5.444h.259c1.124-3.284.432-6.654 1.037-10.024.087 1.382.173 2.765.087 4.234 0 2.247-.087 4.408-.173 6.655 0 .432-.087.864-.173 1.296-.26 1.21-.346 2.42-.778 3.543-.345.864-.173 2.161-.173 3.198v3.283c0 .087.26.346.26.692.086.778-.346 1.556-.087 2.42.087.173-.086.432-.173.605-.086.26-.172.518-.086.777l.259 1.297c0 .086.087.173.173.345.087-.345.087-.605.087-.69 1.469.172.69 1.468 1.382 2.16-.345.172-.605.26-.605.345.087.346.26.605.26.951 0 .777-.087 1.47-.173 2.247 0 1.987-.087 3.975-.087 5.876 0 .26.087.52.087.778 0 .173-.087.346-.087.605v1.815h.346c-.173.26-.346.518-.605.777-.086 0-.346 0-.346-.086v-10.889h-1.296c-.173 5.185.259 9.852-.691 14.691-1.037.087-1.383.26-2.506.26-2.68 0-5.358 0-8.037.086-3.198 0-6.31.087-9.507.087-1.555 0-3.197.172-4.753.172-2.074 0-4.234-.259-6.308-.259-3.198 0-6.31.26-9.506.346-2.334.086-4.667.086-7 .173-1.556.086-3.112.173-4.667.345-.691.087-1.296.346-2.161.605-.26 0-.864-.086-1.382 0-.864.173-1.642.692-2.506.864-1.297.26-1.642.605-1.47 1.902v.864a2.588 2.588 0 0 0-.605-.432c-.086 0-.172.086-.172.086.086.26.259.432.345.692.346-.173.778-.605 1.124-.605h1.21c-.173 0-.26.518-.52.95a66.78 66.78 0 0 0 1.557-.605c.086.26.086.605.086.692 1.21-.087 2.333-.432 3.37-.173 3.37.864 6.828 1.21 10.284 1.555 2.247.173 4.408.26 6.655.346 3.197.173 6.395.346 9.592.346 2.679 0 5.272-.259 7.95-.259 3.717 0 7.433.172 11.149.26.778 0 1.642-.088 2.506-.088h6.309c5.617-.172 11.234-.259 16.852-.432 3.197-.086 6.48-.259 9.679-.345l9.85-.26c3.804-.086 7.606-.086 11.322-.173 2.852 0 5.618-.086 8.469-.172 3.198-.087 6.482-.346 9.679-.519 1.729-.086 3.457-.259 5.186-.432 2.074-.173 4.234-.432 6.308-.519 3.11-.172 6.309-.259 9.42-.432 3.889-.259 7.778-.605 11.753-.69 3.63-.174 7.346-.087 10.975-.174 3.198-.086 6.395-.259 9.679-.345l5.445-.26s3.629-.086 5.444-.259c3.11-.173 6.222-.519 9.333-.605 1.988-.086 3.976 0 5.963-.086 3.198-.087 6.482-.26 9.679-.26 1.21 0 2.507.173 4.062.26-.691.605-1.123.95-1.642 1.382.346.087.69.26 1.037.432 0 .087-.086.173-.086.346-.432 0-.864.087-1.297.087-.172.432-.345.604-.518 1.47h1.555c-.604 0-1.123.776-1.728 1.295.087.086.173.086.259.173-.95-.346-1.555-.173-1.901.778.259.086.432.086.69.086-.085.26-.171.52-.258.864-.086.173-.173.346-.173.605l-.26-.259c0-.173 0-.346-.085-.519-.52.52-1.297.865-.865 1.988-.345.173-.777.346-1.21.605.087.173.26.346.346.605-.777.086-1.555.26-1.382 1.21.345.086.69.26.95.345-.432.173-.864.432-1.296.605-.087.173-.173.605-.346.692-1.21.26-.518.691-.173 1.123-.26.173-.518.346-.777.432.259.087.432.173.605.346-.26.173-.433.26-.605.346.172.086.432.26.518.26-.346.258-.778.604-1.296 1.036 0 .173 0 .26.086.432-.345.346-.691.691-1.037 1.21-.345.518-.518 1.21-.95 1.728-1.815 1.988-3.112 4.321-5.445 5.877-.864.605-1.642 1.382-2.42 2.16-1.555 1.47-2.938 3.111-4.58 4.494-2.16 1.815-4.407 3.457-6.741 5.1-2.851 1.986-5.703 3.974-8.555 5.875-1.556 1.037-3.284 1.815-4.926 2.766-1.642.95-3.197 1.815-4.84 2.765-1.037.692-1.987 1.642-3.111 2.161-2.852 1.21-5.876 2.247-8.814 3.37-.26.086-.432.173-.692.26-2.16.95-4.234 1.987-6.395 2.765-1.988.691-4.061 1.21-6.136 1.642-.691.173-1.47 0-2.246.086-1.47.26-2.94.605-4.408.778-3.802.52-7.605.864-11.407 1.383-2.247.26-4.408.691-6.655.95-1.555.087-3.197-.086-4.753-.086-1.123 0-2.333.26-3.457.086-1.814-.259-3.63-.69-5.444-1.037-.432-.086-1.037-.259-1.383-.086-.691.345-1.296-.173-1.987 0-.432.086-.864-.259-1.297-.259-.345-.087-.777.086-1.21 0-.95-.26-1.814-.605-2.851-.519-1.037.087-2.074-.432-3.198-.69-1.555-.347-3.024-.693-4.58-1.038-.605-.173-1.123-.432-1.728-.778-.173.086-.433.26-.778.26-1.47-.26-2.938-.346-4.321-.865-1.21-.432-2.333-1.037-3.63-.864-.345.086-.605-.087-.95-.087-.26-.345-.52-1.037-.778-1.037-1.73.087-2.766-1.382-4.235-1.814-.778-.26-1.382-1.124-2.16-1.383-1.901-.778-3.457-2.42-5.617-2.679-.692-.087-1.383-.432-2.161-.692.259.346.432.605.69.865l-.172.172c-2.333-1.382-4.666-2.765-7-4.06-.345-.088-.604-.433-.864-.606l-2.333-1.556c-.26-.173-.778-.432-.778-.346-.518.606-1.037.087-1.382-.086-2.334-1.642-5.013-2.679-7.26-4.494-.95-.777-2.074-1.296-2.765-2.247-1.21-1.469-2.68-2.506-4.321-3.37-1.296-.69-2.506-1.469-3.716-2.247-.605-.432-1.21-.95-1.21-1.9 0-.606-.26-1.21-1.037-.865-.346-.519-.691-1.124-1.123-1.297-1.037-.432-1.73-1.209-2.507-1.9-.777-.692-1.382-1.643-2.333-1.988-1.728-.692-2.765-2.16-3.802-3.37-2.42-2.853-4.581-5.964-6.828-8.989-.172-.259-.518-.432-.777-.69l-.087.086c.432.864.864 1.642 1.297 2.506-.087.086-.26.173-.346.26-.52-.606-1.124-1.21-1.642-1.816-.087.087-.173.173-.26.173l6.223 9.852c.518.778.95 1.555 1.469 2.333a1.17 1.17 0 0 1-.346.26c-.95-.173-1.814-.865-2.247-1.643-.777-1.382-1.642-2.246-3.37-2.074-.173-.605-.346-1.296-.432-1.9-.346 0-.605 0-1.21-.087 1.21 1.901 2.247 3.543 3.37 5.444-.432-.259-.691-.432-.864-.518 1.556 1.642 2.679 3.716 4.667 4.753.432 1.987 2.679 2.938 3.197 4.84-.432-.087-.777-.174-1.21-.26-.691-.864-1.47-1.728-2.246-2.679.172.605.432 1.123.777 1.556 1.037 1.296 1.988 2.592 3.198 3.716.432.432 1.037.605 1.037 1.382.173-.173.346-.259.69-.432-.172.346-.258.52-.344.778.345 0 .605.086.864.086.173.52-.087 1.297.95 1.124.087 0 .173.086.26.173.432 1.123 1.123 1.123 2.074.691.173-.086.605 0 .69.173.433.95 1.038 1.037 1.816.346 0 .432.086.864.086 1.21h.346c0-.173-.086-.433-.086-.865.432.346.69.52.864.692.864 1.21 1.642 2.333 2.852 3.283 1.642 1.383 3.11 2.852 4.666 4.15 3.025 2.505 6.395 4.58 9.766 6.48 4.148 2.333 8.123 4.84 12.358 7.086 5.098 2.68 10.543 4.494 16.16 5.791 2.074.432 4.062.864 6.136 1.382 1.815.52 3.63 1.297 5.444 1.73 2.766.604 5.618 1.122 8.383 1.641.605.086 1.21.173 1.9.26v.172c.779 0 1.73-.346 1.903-.087.432.692.777.346 1.296.26.605-.173 1.296-.173 1.987-.173 2.42.086 4.753.605 7.173.432.519 0 1.297-.432 1.729.432.173-.087.259-.173.432-.259.345-.087.778-.087 1.123-.173v.173c-.173.086-.345.086-.691.173.432.086.69.172.95.26-.172.172-.26.172-.432.258-.172.086-.432.173-.777.432 3.11.605 6.049.692 8.642 0v-.518h.345c0 .172.087.345.173.518 3.975.346 7.864-.173 11.58-1.469.346.432.605 1.037 1.124.173.173-.259.605-.346.95-.432.778-.173 1.729-.519 2.42-.259.778.26 1.037-.433 1.642-.433a16.14 16.14 0 0 0 2.938-.259c.519-.086 1.037-.346 1.642-.518 0-.087 0-.173-.086-.26-.605-.086-1.296-.172-1.815-.172 1.037-.519 1.988-.95 2.938-1.383 0 .086.087.086.087.173-.26.086-.432.432-.778.432h1.21c-.26 0-.605.778-1.037 1.296 3.11-.778 5.963-1.469 8.728-2.16v-.173c-.345.086-.605.086-.864.173-.086-1.815 1.9-1.21 2.593-2.247-.865.26-1.73.518-2.593.691v-.173c2.938-1.296 5.963-2.592 8.9-3.889 0 .087.088.087.088.173-.52.346-1.037.605-1.815 1.037.518.087.864.087 1.123.173 0 .26 0 .432-.086.52 1.469-.088 1.123-1.384 1.555-2.162.26.086.605.26.865.173.777-.173 1.469-.432 2.246-.69.865-.26 1.729-.52 2.593-.866 1.383-.605 2.679-1.382 4.062-2.074.259-.086.69 0 1.037 0 .259 0 .432-.173.605-.345.345-.26.69-.778.95-.692 1.21.173 2.074-.259 2.42-1.382.087 0 .087-.087.173-.087.432-.345.864-.69 1.296-.95 1.902-1.038 3.716-2.074 5.618-3.112.086-.086.259 0 .432 0 .259 0 .605 0 .777-.086 1.124-.519 2.16-1.123 3.198-1.728-.26-.087 0-.173-.864-.26v-.173c.864-.172 1.123-.259 1.642-.432l-.173-.172c2.247-2.247 5.099-3.889 7.259-5.79.432.086.605.172.864.172.087-.259.087-.518.087-.69.345-.433.69-.952 1.123-1.297 1.9-1.729 3.976-3.198 5.704-5.013 2.506-2.506 4.926-5.098 7.173-7.777 2.074-2.42 4.148-4.84 5.876-7.519 2.42-3.716 4.494-7.518 6.654-11.407 1.556-2.766 2.939-5.53 4.494-8.297.173-.259.519-.604.778-.604 2.333-.26 4.667-.433 6.914-.692.518-.086 1.123-.432 1.642-.69-.26-.433-.433-.952-.692-1.384-.345-.519-.864-.95-1.21-1.469-.345-.432-.604-.95-.864-1.469-.26-.432-.518-.778-.778-1.21-.518-.95-1.037-1.9-1.47-2.938-.085-.26-.258-.692-.172-.95 1.556-3.37 2.16-7 3.63-10.37 1.469-3.458 1.9-7.347 2.593-11.063.605-3.543.95-7.086 1.382-10.63.26-2.506.605-4.926.692-7.432.518-3.975.345-7.69.259-11.407zm-217.26 96.444c-.603-.69-1.122-1.469-1.727-2.16l.259-.26c.95 1.038 1.902 2.074 2.852 3.198-.518-.259-1.123-.432-1.383-.778zm1.384.778c.259-.086.519-.086.778-.173.259.432.432.951.69 1.47-1.21-.087-1.814-.606-1.468-1.297zm89.876 35.691v-.259c1.642-.173 3.198-.346 4.84-.518v.26a45.946 45.946 0 0 1-4.84.517zm21.778-2.247c-1.21.26-2.506.432-3.716.605-.432.087-.95.52-1.123-.259-.173.086-.346.086-.52.173.433 1.296 1.47.26 2.334.778-1.901.26-3.716.432-5.53.691v-.173c.518-.086 1.123-.173 1.642-.259v-.259c-.865-.087-1.73-.173-2.593-.173-.26 0-.605.346-.864.432-.346.086-.692.173-1.124.173-1.47.086-2.938.086-4.321.173-.086 0-.26-.087-.345-.087v-.259c5.79-.778 11.494-1.556 17.284-2.333.086.172.086.345.172.518-.518 0-.864.173-1.296.26zm1.296-.864c1.988-.259 3.803-.432 5.704-.69-3.975 1.122-5.271 1.295-5.704.69zM77.705 76.42c2.766-3.803 5.617-7.606 8.383-11.495.864-1.123 1.555-2.333 2.42-3.456.259-.346.604-.519 1.037-.865l-.087-.172c.346-.433.69-.778.864-1.124.432-.69.692-1.469 1.037-2.247.087-.173.346-.345.346-.345 1.21.604 1.21-.692 1.642-1.124a61.142 61.142 0 0 0 2.247-2.679c.518-.69 1.037-1.296 1.469-2.074.086-.259-.173-.69-.26-1.037h-.258c.259-.173.518-.432.777-.605.087 0 .087 0 .173-.086.519-.778 1.037-1.556 1.556-2.247 1.037-1.383 2.16-2.766 3.37-3.976-.173.432-.346.865-.518 1.21.086 0 .086.087.172.087 1.037-1.383 2.16-2.679 3.198-4.062-.087-.086-.173-.173-.26-.173-.431.432-.777.864-1.21 1.296-.086-.086-.172-.172-.26-.172.866-1.124 1.73-2.247 2.594-3.544.173.26.346.605.69 1.297.347-.865.693-1.47.952-2.074-.26.26-.605.518-.864.777l-.26-.259 1.556-2.333c1.642-2.334 3.284-4.753 4.926-7.087.605-.864 1.383-1.555 1.9-2.419 1.643-3.284 4.236-5.877 6.223-8.902.433-.604 1.037-1.123 1.556-1.642.432-.518.778-.345 1.124.087 2.333 2.938 4.666 5.963 6.999 8.901 1.729 2.161 3.457 4.235 5.099 6.481 1.988 2.766 3.889 5.531 5.877 8.297 2.247 3.197 4.494 6.395 6.654 9.68 3.284 4.838 6.395 9.678 9.679 14.517 2.42 3.544 4.84 7 7.173 10.544h-4.408c-4.061-.087-8.21-.433-12.271-.26-5.531.26-11.148.864-16.68 1.296-7 .605-14.086.692-21.085.692-2.507 0-5.013.345-7.52.518-3.024.173-5.962.346-8.987.433-3.543.172-7 .26-10.543.345-1.987.087-4.062 0-6.222 0zm99.123 39.752v.778c-.086 0-.173.086-.346.086-.345-1.21-.691-2.506-1.123-3.716-.864-2.506-1.815-5.012-3.37-7.259-1.73-2.42-3.284-4.926-5.013-7.432-.432-.605-1.037-1.124-1.555-1.642-1.815-1.988-3.63-4.062-5.963-5.53-3.457-2.16-7-3.976-10.803-5.532-1.037-.432-1.987-.95-3.024-1.555h2.074l14.778-.259c3.197-.087 6.308-.087 9.506-.26.778 0 1.21.26 1.642.951.778 1.296 1.555 2.592 2.419 3.89.087.171.26.431.26.69 0 1.901 0 3.89.086 5.79.087 1.988.259 3.89.346 5.877 0 1.987-.173 4.061-.087 6.135.087 2.94.173 5.963.173 8.988zM83.84 87.221c4.062-.173 7.95-.433 11.926-.605 3.11-.173 6.308-.26 9.419-.432 1.297-.087 2.507-.173 3.803 0-1.383.691-2.765 1.382-3.975 2.247-1.556 1.036-3.025 2.42-4.581 3.543-1.555 1.123-2.938 2.506-4.234 3.975-1.642 1.988-3.457 3.716-5.185 5.617-1.21 1.383-2.593 2.68-3.63 4.148-1.47 1.902-2.765 3.976-4.148 6.136.432-8.21.95-16.333.605-24.629zm56.432 83.135c-2.766.691-5.617 1.47-8.47 1.815-2.42.346-4.925.26-7.431.26-2.247 0-4.408-.087-6.655-.26-2.506-.259-5.012-.519-7.432-1.642-2.074-.95-4.234-1.815-6.308-2.852s-4.15-2.247-5.704-4.148c-1.124-1.383-2.68-2.506-4.062-3.716a4.073 4.073 0 0 0 1.815 2.506c-.432.52-1.037.26-1.901-1.123-.26.172-.52.26-.692.345.26-.605.519-1.209.778-1.728-.345-.69-.778-1.469-1.123-2.16a70.764 70.764 0 0 1-1.988-3.457c-.173-.26-.173-.519-.346-.778-.432-.519-.864-1.037-1.21-1.556-.691-1.037-1.296-2.16-2.16-3.197 0 .26.086.518.086.864-.086 0-.172.086-.172.086l-1.815-4.407c-.087 0-.087 0-.173.087l1.556 5.703c-.087 0-.173.087-.26.087-.26-.346-.518-.692-.691-1.124-.173-.69-.691-.69-1.124-.432-.26.173-.432.778-.345 1.037.605 1.47 1.296 2.938 1.987 4.408.173.518.346.95.605 1.47.087.172.346.344.346.604.346.691.605 1.382 1.037 1.987.778 1.037 1.642 2.074 2.42 3.111.778 1.037 1.469 2.161 2.16 3.198.087.173.346.173.432.26.433 1.295 1.902 2.246 2.939 1.728.259 1.987 2.419 2.68 3.284 4.58a39.795 39.795 0 0 1-2.507-1.124c-.086.087-.086.173-.172.346 1.037.518 2.074 1.037 3.024 1.642.864.518 1.729 1.037 2.506 1.642 1.038.95 2.247 1.47 3.717 1.815-.087-.26-.173-.346-.173-.346a277.903 277.903 0 0 1 6.827 3.284c-8.988.173-18.58.346-28.52.518 0-1.642-.085-3.197-.085-4.839 0-.69.173-1.296.086-1.988-.26-3.975-.26-7.95-.777-11.839-.52-4.148-.52-8.21-.432-12.358.086-2.247-.087-4.58-.173-6.827 0-3.025 0-5.963.086-8.988 0-.432.173-.778.346-1.21h.259c.086.173 0 .432.173.52.259.258.69.69.864.604.519-.346 1.296-.692 1.469-1.21.432-1.037.605-2.16.605-3.198 0-.777.346-1.296.69-1.815.174-.259.26-.518.434-.864-.346-.259-.692-.432-1.124-.777.346-.95.259-2.075 1.556-2.593.173-.087.173-.519.259-.778.086-.69.173-1.469.259-2.16.173.26.259.345.432.518.087-.173.173-.259.173-.259 0-.346-.086-1.037 0-1.037 1.037-.173.605-1.296 1.124-1.815.086-.086-.087-.346-.087-.518 0-.173 0-.433.087-.433 1.209-.259 1.037-1.555 1.814-2.16.26-.173.346-.432.692-.864.69 1.21-.52 1.815-.605 2.68 1.469-.865 1.9-2.939 1.037-3.544.346-.26.69-.605.95-.95.95-1.038 1.988-1.989 2.852-3.026.605-.778.95-1.728 1.556-2.506.346-.432 1.037-.778 1.555-1.037 1.556-.864 3.025-1.815 3.976-3.284.173-.173.432-.346.69-.518.26-.173.779-.173.865-.433.087-.172-.173-.604-.346-.864.346-.173.692-.518 1.383-.864-.26.52-.345.864-.518 1.21l.432.432c.778-.605 1.988-1.296 2.765-1.815 0-.086-.432-.432-.432-.432-.518.26-1.296.692-2.074 1.037.173-.259.173-.432.259-.518 1.21-.778 2.42-1.556 3.716-2.16 3.025-1.384 6.05-2.766 9.074-4.063.519-.259 1.21-.086 1.815-.086.259 0 .432 0 .692-.086 1.382-.432 2.765-.864 4.148-1.21a7.19 7.19 0 0 1 1.9-.259c2.594.086 5.186.086 7.779.26 1.123.085 2.16.345 3.197.69 1.297.432 2.679 1.037 3.889 1.642a42.747 42.747 0 0 1 4.235 2.593c2.506 1.642 4.839 3.456 7.345 4.926 2.42 1.47 4.32 3.456 5.877 5.703 1.9 2.68 4.062 5.1 4.926 8.383l1.296 5.704c.259 1.037.864 2.074.605 3.284-.432 2.16-.778 4.407-1.123 6.568-.173.864-.346 1.728-.26 2.592.173 2.68-.864 5.012-1.901 7.432-.346.778-.864 1.556-1.296 2.42.086.086.605.346.69.346l.779-1.556c.086 0 .086 0 .173.087-.432 1.21-.778 2.506-1.21 3.716-1.037 2.68-2.074 5.444-3.37 8.037-.692 1.47-1.902 2.68-2.766 4.061-.864 1.21-1.555 2.506-2.42 3.63-.777.951-1.555 1.901-2.592 2.593-2.334 1.728-4.753 3.456-7.26 4.84-1.555.95-3.37 1.468-5.098 1.9zm-46.062-4.58l-.086.086c-.173-.086-.432-.173-.605-.345l-2.074-3.11c-.173-.26-.26-.52-.173-.866a73.511 73.511 0 0 0 2.938 4.235zm53.753 11.84c3.889-1.643 7.087-3.976 10.025-6.655.432-.432.864-.864 1.383-1.21 3.629-2.247 6.308-5.358 8.728-8.815 2.765-3.975 4.58-8.469 6.827-12.703.173-.346.346-.692.519-.95-.173 9.851.95 19.53 2.246 29.295-9.765.346-19.703.692-29.728 1.037zm87.63-2.593c-.087.173-.26.345-.346.518-.087-.173-.087-.432-.173-.777-.52 1.382-1.642.691-2.42.691-4.666.086-9.42.086-14.086.086-4.494 0-9.074 0-13.568.087-1.47 0-3.025.345-4.494.432-3.543.173-7.086.26-10.63.345-.26 0-.518-.432-.95-.777-.086.173-.26.432-.52.777-.085-.172-.258-.345-.431-.604a5.98 5.98 0 0 1-.26.691h-.258c-.173-1.21-.52-2.333-.52-3.543 0-2.593.26-5.185.347-7.778.086-1.21 0-2.333 0-3.457.346.26.605.432.95.692.173-.346.346-.605.519-.865 0 0-.173-.086-.346-.259.173-.086.346-.259.346-.345.087-.26.259-.519.259-.692 0-.605-.172-1.123-.26-1.642.088 0 .174 0 .26-.086l.519 2.592h.259c-.345-.605.778-1.123-.173-1.815-.086-.086.087-.605.087-.864-.26-.518-.432-1.037-.692-1.728.087-.086.346-.173.605-.259-.345-.173-.605-.346-.864-.433.864-.777.864-1.209.087-2.074.172-.086.345-.086.345-.172 0-.778 0-1.556-.173-2.334-.172-.864.26-1.9-1.037-2.419a2.6 2.6 0 0 0 .346.691s-.26.086-.52.26c-1.122-1.038-.431-2.42-.69-3.976.605.173 1.037.346 1.469.518-.173-.604-.605-1.296-.864-2.074h-.346v-5.703c0 .086.605.086.95.172 0-.086.087-.172.087-.259-.26-.346-.605-.69-.95-1.123l.173-.173c-.692-.864-.346-2.074-.346-2.333v-6.05c.864.864-.432 1.988.864 2.506v-.864h-.086c-.087-1.296-.087-2.592-.173-3.889h-.173c-.086.173-.086.26-.173.432h-.173c.173-6.827.346-13.654.519-20.654.864 1.124 1.815 2.161 2.42 3.284 1.987 3.63 4.58 6.741 7 10.025 2.074 2.852 3.975 5.963 5.876 8.901 2.333 3.543 4.58 7.086 6.914 10.63a253.707 253.707 0 0 0 5.358 7.95c1.642 2.333 3.37 4.58 5.099 6.827 1.469 1.988 3.024 3.976 4.493 5.963 1.729 2.42 3.457 4.84 5.186 7.173.864 1.21 1.814 2.42 2.765 3.63.518.691 1.296 1.21 1.815 1.642-.087 0-.173 0-.346-.087.259.346.432.605.605.778.95.518 1.037 1.037.519 1.815zM240 153.418v-.605c0 .173.086.432 0 .605zm2.938-38.11c-.086 0-.605-.52-.691-.606-.087.26 0 .518-.173.864-.086-.259-.691-.173-.691-.432-.087 1.21.518 2.42.432 3.63.259-.173 1.296-.26 1.555-.519.087.087.259.173.346.173-1.728 1.296-1.296 2.593-.52 4.062.174.345.693 1.037.174 1.728-.173.173.087.692.173 1.124h.259v.172l-.777.26c-.173-.26-1.21-.778-1.21-1.21v4.407c.864.26.864 1.47 1.21 2.074.172-.259.259-.432.345-.69l.087.085c-.087.52-.173 1.037-.346 1.556-.173.778-.346 1.47-.432 2.247 0 .086.173.26.173.345-.951 2.161-.432 4.581-.778 6.828-.26 1.642 0 3.37-.173 5.098-.173 1.47-.518 3.025-.864 4.494-.086.26-.26.346-.691.52.172-1.038.086-1.73-.087-2.68-.086 0-1.21-.605-1.296-.605 0 1.21.69 2.852.95 4.234-.26-.086-1.296-.69-1.382-.69-.173 1.036-.173 2.42-.26 3.542-.086.864-.864 1.642-.95 2.593 0 .518.605.864.518 1.728h.692c0-1.728.778-3.284.778-5.099h.259c.086.173.346.346.259.433-.173.95-.518 1.987-.432 2.938 0 .518.432 1.037.259 1.642-.173.518-.26 1.037-.345 1.814-.087-.432-.173-.604-.173-.864-.087 0-.864-.086-.951-.086-.086.518.605 1.037.519 1.47-.087.086-.173.086-.346.172l-2.852-4.148c-2.247-3.284-4.494-6.568-6.741-9.938a20.627 20.627 0 0 1-1.555-2.593c-2.68-4.58-5.617-8.988-8.901-13.222-2.507-3.198-4.494-6.655-6.828-10.025-2.16-3.197-4.321-6.309-6.481-9.506-.778-1.037-1.728-1.988-2.42-3.11-2.247-3.544-4.234-7.174-6.481-10.717-1.901-2.939-3.976-5.79-5.963-8.642a92.195 92.195 0 0 1-2.074-3.025c-.087-.173-.173-.346-.173-.605-.173-1.9-.346-3.802-.432-5.617 0-1.729.173-3.457.173-5.272v-1.555c0-.432.086-.778.086-1.21.086-.087.173-.259.259-.346-2.506 0-5.098-.086-7.605 0-1.641.087-2.506-.605-3.63-1.814-3.283-3.717-5.703-7.95-8.555-11.926-2.68-3.803-5.444-7.519-8.21-11.235-2.246-3.025-4.493-5.963-6.74-8.988-2.506-3.456-4.926-6.913-7.52-10.37-3.11-4.148-6.307-8.296-9.505-12.444-1.47-1.902-3.111-3.716-4.753-5.704 1.123.173 2.16.346 3.198.432l4.148.26c3.11.26 6.222.431 9.333.863 2.593.346 5.185.865 7.864 1.297 5.704.95 11.32 2.506 16.766 4.321 3.197 1.037 6.308 2.42 9.419 3.716 7 2.852 13.655 6.308 20.222 9.938 2.075 1.123 3.284 2.938 4.84 4.58 2.247 2.334 4.494 4.667 6.654 7.087 2.506 2.852 4.84 5.79 7.259 8.728 2.16 2.593 4.408 5.185 6.568 7.778.692.778 1.21 1.728 1.815 2.592 1.383 2.074 2.938 4.062 4.148 6.31.865 1.641 1.383 3.542 1.988 5.357.864 2.68 1.728 5.272 2.593 7.951a71.016 71.016 0 0 1 1.555 6.135c.346 1.383.259 2.852.69 4.235.52 1.815 0 3.802.52 5.617.086.173.173.432.259.605.346.346.605.691.087 1.21-.087.086-.087.432 0 .691.172-.172.259-.345.432-.605 0 .173.086.26.086.346 0 .346-.086.691 0 1.037 0 .173.173.432.259.605.173-.173.346-.259.692-.518.777 2.938.864 5.876.864 8.901 0 2.852.518 5.703-.691 8.47.259-.952-.346-1.816-.087-2.68z"/><path d="M188.001 149.197c.086 0 .173.087.173.087l-.087-.087c0-.086 0-.086-.086 0zm13.654 85.383c-.95.691-1.901 1.296-3.111 1.555-.086-.086-.086-.173-.173-.259.951-.605 1.988-1.21 2.939-1.815.086.173.259.346.345.519zM39.619 117.481c.95-1.21 1.901-2.42 2.938-3.629.086.086.778.259.864.345-.95 1.21-2.247 2.852-3.197 4.148-.173-.172-.432-.777-.605-.864zm-24.543 42.346c-.692-1.469-1.383-3.025-2.074-4.494.086-.086.691-.346.777-.346.951 1.383 1.383 3.025 2.074 4.494 0 0-.691.346-.777.346zm22.037-41.482c-.519.778-1.037 1.642-1.556 2.42-.086-.086-1.037.346-1.123.259.518-.777 1.814-2.16 2.333-2.938.086.087.173.173.346.259zm155.295 119.778c.087 0 .087-.087.173-.087.605.087 1.297.173 1.988.173-1.124.778-1.815.692-2.161-.086zM37.285 121.975c.087-.259.26-.519.432-.778.173 0 .433-.086.433-.086.345-.605.345-1.037.691-1.556-.086-.086-.173-.086-.259-.173-.519.346-1.037.778-1.556 1.124.173.173.173.259.173.432-.691-.086-.951.259-1.296 1.21-.087.259-.519.345-.951.691-.086.173-.173.605-.346 1.037l.087.087a1.279 1.279 0 0 1-.432.259c-.519.518-1.124.951-1.642 1.469-.087.259-.173.519-.173.778.605-.605 1.642-1.729 2.42-2.42l.086.086c.346-.518.605-1.037.951-1.555.086.086.086.173.173.259-.26.691-.519 1.469-.778 2.161-.173.086-.432.259-.432.173-.346.259-.605.604-.951.864l-1.555 1.037c-.865.778-1.729 1.469-2.679 2.247-.605.95-1.21 1.814-1.902 2.938 1.037-.259 1.297.173 1.21 1.037 1.21.173 1.296-.778 1.642-1.469.087-.173.173-.519.346-.605.778-.691 1.642-1.296 2.506-1.988.173-.173.173-.518.173-.778 0-.086-.432-.086-.691-.172.777-.865 1.901-2.334 2.679-3.284.432-.26.864-.605.864-.865-.087-.95.518-1.209 1.209-1.555-.345-.259-.432-.519-.432-.605z"/><path d="M39.014 121.024c-.346.605-.691 1.124-1.037 1.729l-.519-.26c-.345 1.988-1.555 3.717-2.765 4.062.346.173.691.346.951.259.259-.086.432-.518.604-.777l2.334-3.371.778-1.296-.346-.346zm-28.778 37.938c.432 0 .864.087 1.383.087 0-.346.432-.259.432-.605h.259c0 .432.087.778.087 1.21h-1.815c-.087-.087-.432-.605-.346-.692zm-.691-3.975c-.259-.259-.692-.518-.692-.778-.086-.345.173-.777.433-1.209.172.604.259 1.123.432 1.728-.087.086-.173.173-.173.259zm2.16-5.531c.346.865.692 1.815 1.037 2.679-.086 0-.605.26-.691.346-.346-.864-.778-1.815-1.123-2.679.086-.086.604-.346.777-.346zm192.37 82.618c.432-.173.951-.26 1.642-.433-.778.605-1.383 1.037-1.901 1.556-.087-.087-.173-.173-.259-.173.172-.346.345-.605.518-.951v.001zM97.866 49.469c.518-.346.95-.605 1.469-.951l.173.173c-.519.692-.951 1.383-1.556 2.247-.086-.605-.086-.951-.173-1.383-.086 0 0 0 .087-.086zm25.32 43.728c.778-.345 1.556-.691 2.507-1.123-.087.518-.087.864-.087 1.21-.259-.087-.605-.173-.864-.173-.518.086-1.469.778-1.901.864-.087 0 .345-.691.345-.778zm64.815 73.284c.173.864 1.815 1.296.173 2.16.259.173.518.26.778.433 0 .086-.087.259-.173.345-.173.087-.519.26-.692.173-.086 0-.259-.346-.259-.518 0-.778.087-1.556.173-2.593z"/></g>
</symbol>
<symbol id="icon-webpack" viewBox="0 0 1200 1200">
<path fill="#fff" d="M600 0l530.3 300v600L600 1200 69.7 900V300z"/><path fill="#8ed6fb" d="M1035.6 879.3l-418.1 236.5V931.6L878 788.3l157.6 91zm28.6-25.9V358.8l-153 88.3V765l153 88.4zm-901.5 25.9l418.1 236.5V931.6L320.3 788.3l-157.6 91zm-28.6-25.9V358.8l153 88.3V765l-153 88.4zM152 326.8L580.8 84.2v178.1L306.1 413.4l-2.1 1.2-152-87.8zm894.3 0L617.5 84.2v178.1l274.7 151.1 2.1 1.2 152-87.8z"/><path fill="#1c78c0" d="m580.8 889.7l-257-141.3v-280l257 148.4v272.9m36.7 0l257-141.3v-280l-257 148.4v272.9m-276.3-453.7l258-141.9 258 141.9-258 149-258-149"/>
</symbol>
<symbol id="icon-es6" viewBox="0 0 256 256">
<path fill="#F26522" d="M0 0h256v256H0z"/><path d="M105.536 159.959h39.157v-10.653h-27.064v-16.507h24.953v-10.653h-24.953v-15.452h27.064V96.041h-39.157v63.918zm91.462-17.371c0-12.765-.864-15.548-18.043-19.675-11.037-2.687-11.229-2.879-11.229-10.173 0-5.566 1.44-7.294 9.598-7.294 5.566 0 11.804.768 17.083 1.92l1.344-10.173c-6.335-1.44-13.053-2.112-18.62-2.112-16.219 0-21.497 5.759-21.497 17.371 0 13.533 2.111 16.508 17.563 19.963 11.517 2.495 11.709 3.07 11.709 10.173 0 6.142-1.44 7.966-10.174 7.966-6.334 0-12.092-1.152-18.042-2.976l-2.112 9.502c4.223 2.015 12.669 3.839 19.963 3.839 18.906 0 22.457-6.239 22.457-18.331zm22.266-23.801c0-9.79 4.703-11.71 16.027-11.71 2.016 0 6.239.289 9.022.865l.768-9.79c-2.88-.671-7.486-1.151-11.037-1.151-17.467 0-26.489 5.374-26.489 22.265v23.322c0 11.037 3.263 18.33 19.77 18.33 15.068 0 19.675-7.485 19.675-17.466v-4.607c0-11.037-4.703-15.836-16.315-15.836-4.127 0-8.062.576-11.421 1.728v-5.95zm9.597 14.3c4.223 0 6.43 1.44 6.43 6.046v4.703c0 4.894-1.92 7.006-7.965 7.006-6.047 0-8.062-1.728-8.062-7.006v-8.734c2.687-1.152 6.142-2.015 9.597-2.015z" fill="#FFF"/>
</symbol>
<symbol id="icon-cog" viewBox="0 0 24 24">
  <path stroke="none" d="M0 0h24v24H0z" fill="none"/>
  <path d="M10.325 4.317c.426 -1.756 2.924 -1.756 3.35 0a1.724 1.724 0 0 0 2.573 1.066c1.543 -.94 3.31 .826 2.37 2.37a1.724 1.724 0 0 0 1.065 2.572c1.756 .426 1.756 2.924 0 3.35a1.724 1.724 0 0 0 -1.066 2.573c.94 1.543 -.826 3.31 -2.37 2.37a1.724 1.724 0 0 0 -2.572 1.065c-.426 1.756 -2.924 1.756 -3.35 0a1.724 1.724 0 0 0 -2.573 -1.066c-1.543 .94 -3.31 -.826 -2.37 -2.37a1.724 1.724 0 0 0 -1.065 -2.572c-1.756 -.426 -1.756 -2.924 0 -3.35a1.724 1.724 0 0 0 1.066 -2.573c-.94 -1.543 .826 -3.31 2.37 -2.37c1 .608 2.296 .07 2.572 -1.065z" />
  <circle cx="12" cy="12" r="3" />
</symbol>
<symbol id="icon-file-alert" viewBox="0 0 24 24">
  <path stroke="none" d="M0 0h24v24H0z" fill="none"/>
  <path d="M14 3v4a1 1 0 0 0 1 1h4" />
  <path d="M17 21h-10a2 2 0 0 1 -2 -2v-14a2 2 0 0 1 2 -2h7l5 5v11a2 2 0 0 1 -2 2z" />
  <line x1="12" y1="17" x2="12.01" y2="17" />
  <line x1="12" y1="11" x2="12" y2="14" />
</symbol>
<symbol id="icon-animation" viewBox="0 0 100 100" fill="currentColor">
<path d="M64.5,8A27.5,27.5,0,1,0,92,35.5,27.53,27.53,0,0,0,64.5,8Zm0,52A24.5,24.5,0,1,1,89,35.5,24.53,24.53,0,0,1,64.5,60Z"/><path d="M25.76,45.94A1.5,1.5,0,0,0,27.68,45a20.72,20.72,0,0,1,5.12-7.95,1.5,1.5,0,0,0-2.08-2.16A23.73,23.73,0,0,0,24.85,44,1.5,1.5,0,0,0,25.76,45.94Z"/><path d="M28.43,65.23a1.5,1.5,0,0,0,1.27-2.3A20.54,20.54,0,0,1,26.5,52.35a1.5,1.5,0,0,0-3,.06,23.55,23.55,0,0,0,3.65,12.12A1.5,1.5,0,0,0,28.43,65.23Z"/><path d="M61.92,66.21a20.58,20.58,0,0,1-9.52,5.61,1.5,1.5,0,1,0,.77,2.9,23.57,23.57,0,0,0,10.91-6.42,1.5,1.5,0,1,0-2.16-2.08Z"/><path d="M45,72.4a20.51,20.51,0,0,1-10.28-4,1.5,1.5,0,1,0-1.8,2.4,23.52,23.52,0,0,0,11.79,4.61h.15a1.5,1.5,0,0,0,.15-3Z"/><path d="M14.45,73.62A15.15,15.15,0,0,1,14,69.93a15.38,15.38,0,0,1,.1-1.73,1.5,1.5,0,1,0-3-.34A18.41,18.41,0,0,0,11,69.93a18.14,18.14,0,0,0,.54,4.42A1.5,1.5,0,0,0,13,75.48a1.5,1.5,0,0,0,1.46-1.87Z"/><path d="M13.66,63.65a1.5,1.5,0,0,0,2-.64A15.06,15.06,0,0,1,19,58.72a1.5,1.5,0,0,0-2-2.23,18.06,18.06,0,0,0-4,5.15A1.5,1.5,0,0,0,13.66,63.65Z"/><path d="M40.38,79.9a15.07,15.07,0,0,1-4.26,3.36,1.5,1.5,0,1,0,1.4,2.65,18.08,18.08,0,0,0,5.11-4,1.5,1.5,0,1,0-2.25-2Z"/><path d="M20.56,82.37a15.11,15.11,0,0,1-3.86-3.82,1.5,1.5,0,1,0-2.46,1.72,18.09,18.09,0,0,0,4.62,4.58,1.5,1.5,0,1,0,1.7-2.47Z"/><path d="M30.94,84.89a15.29,15.29,0,0,1-5.42-.31,1.5,1.5,0,0,0-.71,2.92,18.25,18.25,0,0,0,6.49.37,1.5,1.5,0,1,0-.37-3Z"/>
</symbol>
<symbol id="icon-site-map" viewBox="0 0 24 24">
  <path stroke="none" d="M0 0h24v24H0z" fill="none"/>
  <rect x="3" y="15" width="6" height="6" rx="2" />
  <rect x="15" y="15" width="6" height="6" rx="2" />
  <rect x="9" y="3" width="6" height="6" rx="2" />
  <path d="M6 15v-1a2 2 0 0 1 2 -2h8a2 2 0 0 1 2 2v1" />
  <line x1="12" y1="9" x2="12" y2="12" />
</symbol>
<symbol id="icon-keyboard" viewBox="0 0 24 24">
  <path stroke="none" d="M0 0h24v24H0z" fill="none"/>
  <rect x="2" y="6" width="20" height="12" rx="2" />
  <line x1="6" y1="10" x2="6" y2="10" />
  <line x1="10" y1="10" x2="10" y2="10" />
  <line x1="14" y1="10" x2="14" y2="10" />
  <line x1="18" y1="10" x2="18" y2="10" />
  <line x1="6" y1="14" x2="6" y2="14.01" />
  <line x1="18" y1="14" x2="18" y2="14.01" />
  <line x1="10" y1="14" x2="14" y2="14" />
</symbol>
<symbol id="icon-devices" viewBox="0 0 24 24">
  <path stroke="none" d="M0 0h24v24H0z" fill="none"/>
  <rect x="13" y="8" width="8" height="12" rx="1" />
  <path d="M18 8v-3a1 1 0 0 0 -1 -1h-13a1 1 0 0 0 -1 1v12a1 1 0 0 0 1 1h9" />
  <line x1="16" y1="9" x2="18" y2="9" />
</symbol>
<symbol id="icon-file-symlink" viewBox="0 0 24 24">
  <path stroke="none" d="M0 0h24v24H0z" fill="none"/>
  <path d="M4 21v-4a3 3 0 0 1 3 -3h5" />
  <path d="M9 17l3 -3l-3 -3" />
  <path d="M14 3v4a1 1 0 0 0 1 1h4" />
  <path d="M5 11v-6a2 2 0 0 1 2 -2h7l5 5v11a2 2 0 0 1 -2 2h-9.5" />
</symbol>
<symbol id="icon-template" viewBox="0 0 24 24">
  <path stroke="none" d="M0 0h24v24H0z" fill="none"/>
  <rect x="4" y="4" width="16" height="4" rx="1" />
  <rect x="4" y="12" width="6" height="8" rx="1" />
  <line x1="14" y1="12" x2="20" y2="12" />
  <line x1="14" y1="16" x2="20" y2="16" />
  <line x1="14" y1="20" x2="20" y2="20" />
</symbol>
<symbol id="icon-file-code" viewBox="0 0 24 24">
  <path stroke="none" d="M0 0h24v24H0z" fill="none"/>
  <path d="M14 3v4a1 1 0 0 0 1 1h4" />
  <path d="M17 21h-10a2 2 0 0 1 -2 -2v-14a2 2 0 0 1 2 -2h7l5 5v11a2 2 0 0 1 -2 2z" />
  <path d="M10 13l-1 2l1 2" />
  <path d="M14 13l1 2l-1 2" />
</symbol>
<symbol id="icon-accessible" viewBox="0 0 24 24">
  <path stroke="none" d="M0 0h24v24H0z" fill="none"/>
  <circle cx="12" cy="12" r="9" />
  <path d="M10 16.5l2 -3l2 3m-2 -3v-2l3 -1m-6 0l3 1" />
  <circle cx="12" cy="7.5" r=".5" fill="currentColor" />
</symbol>
<symbol id="icon-device-mobile" viewBox="0 0 24 24">
  <path stroke="none" d="M0 0h24v24H0z" fill="none"/>
  <rect x="7" y="4" width="10" height="16" rx="1" />
  <line x1="11" y1="5" x2="13" y2="5" />
  <line x1="12" y1="17" x2="12" y2="17.01" />
</symbol>
<symbol id="icon-linkedin" viewBox="0 1 32 32">
<path d="M12 12h5.535v2.837h0.079c0.77-1.381 2.655-2.837 5.464-2.837 5.842 0 6.922 3.637 6.922 8.367v9.633h-5.769v-8.54c0-2.037-0.042-4.657-3.001-4.657-3.005 0-3.463 2.218-3.463 4.509v8.688h-5.767v-18z"></path>
<path d="M2 12h6v18h-6v-18z"></path>
<path d="M8 7c0 1.657-1.343 3-3 3s-3-1.343-3-3c0-1.657 1.343-3 3-3s3 1.343 3 3z"></path>
</symbol>
<symbol id="icon-codepen" viewBox="-1 1 32 32">
<path d="M29.555 11.501l-14-9.333c-0.336-0.224-0.774-0.224-1.109 0l-14 9.333c-0.278 0.185-0.445 0.498-0.445 0.832v9.333c0 0.334 0.167 0.647 0.445 0.832l14 9.333c0.168 0.112 0.361 0.168 0.555 0.168s0.387-0.056 0.555-0.168l14-9.333c0.278-0.185 0.445-0.498 0.445-0.832v-9.333c0-0.334-0.167-0.647-0.445-0.832zM15 20.465l-5.197-3.465 5.197-3.465 5.197 3.465-5.197 3.465zM16 11.798v-6.93l11.197 7.465-5.197 3.465-6-4zM14 11.798l-6 4-5.197-3.465 11.197-7.465v6.93zM6.197 17l-4.197 2.798v-5.596l4.197 2.798zM8 18.202l6 4v6.93l-11.197-7.465 5.197-3.465zM16 22.202l6-4 5.197 3.465-11.197 7.465v-6.93zM23.803 17l4.197-2.798v5.596l-4.197-2.798z"></path>
</symbol>
<symbol id="icon-codesandbox" viewBox="0 0 24 24">
<path d="M1.5 6l10.455-6L22.41 6l.09 11.95L11.955 24 1.5 18zm2.088 2.481v4.757l3.345 1.86v3.516l3.972 2.296v-8.272zm16.739 0l-7.317 4.157v8.272l3.972-2.296V15.1l3.345-1.861V8.48zM4.634 6.601l7.303 4.144 7.32-4.18-3.871-2.197-3.41 1.945-3.43-1.968L4.633 6.6z"/>
</symbol>
<symbol id="icon-envelope" viewBox="0 1 28 28">
<path d="M28 11.094v12.406c0 1.375-1.125 2.5-2.5 2.5h-23c-1.375 0-2.5-1.125-2.5-2.5v-12.406c0.469 0.516 1 0.969 1.578 1.359 2.594 1.766 5.219 3.531 7.766 5.391 1.313 0.969 2.938 2.156 4.641 2.156h0.031c1.703 0 3.328-1.188 4.641-2.156 2.547-1.844 5.172-3.625 7.781-5.391 0.562-0.391 1.094-0.844 1.563-1.359zM28 6.5c0 1.75-1.297 3.328-2.672 4.281-2.438 1.687-4.891 3.375-7.313 5.078-1.016 0.703-2.734 2.141-4 2.141h-0.031c-1.266 0-2.984-1.437-4-2.141-2.422-1.703-4.875-3.391-7.297-5.078-1.109-0.75-2.688-2.516-2.688-3.938 0-1.531 0.828-2.844 2.5-2.844h23c1.359 0 2.5 1.125 2.5 2.5z"></path>
</symbol>
</defs>
</svg>
